<?xml version="1.0" encoding="UTF-8"?>
<svg xmlns="http://www.w3.org/2000/svg" viewBox="0 0 850 460" width="100%" height="100%" style="background-color: var(--bg-color, #ffffff); font-family: 'Comic Sans MS', 'Chalkboard SE', 'Virgil', 'Segoe Print', ui-sans-serif, system-ui, sans-serif;">
  <defs>
    <style>
      :root {
        --bg-color: #ffffff;
        --border-color: #1e293b;
        --text-primary: #0f172a;
        --text-secondary: #475569;
        --grid-color: #e2e8f0;
        --stories-color: #ff4785;
        --components-color: #0288d1;
        --total-color: #8b5cf6;
        --legend-bg: #ffffff;
      }
      @media (prefers-color-scheme: dark) {
        :root {
          --bg-color: #0d1117;
          --border-color: #e6edf3;
          --text-primary: #f0f6fc;
          --text-secondary: #8b949e;
          --grid-color: #21262d;
          --stories-color: #ff6097;
          --components-color: #38bdf8;
          --total-color: #a78bfa;
          --legend-bg: #161b22;
        }
      }
      
      .axis { stroke: var(--border-color); stroke-width: 2.2; fill: none; stroke-linecap: round; stroke-linejoin: round; }
      .grid { stroke: var(--grid-color); stroke-width: 1.2; stroke-dasharray: 4,4; fill: none; }
      .stories-line { stroke: var(--stories-color); stroke-width: 2.8; fill: none; stroke-linecap: round; stroke-linejoin: round; }
      .components-line { stroke: var(--components-color); stroke-width: 2.8; fill: none; stroke-linecap: round; stroke-linejoin: round; }
      .total-line { stroke: var(--total-color); stroke-width: 2.4; stroke-dasharray: 6,4; fill: none; stroke-linecap: round; stroke-linejoin: round; }
      .legend-box { stroke: var(--border-color); stroke-width: 1.6; fill: var(--legend-bg); }
      .title-text { fill: var(--text-primary); font-size: 20px; font-weight: bold; text-anchor: middle; }
      .label-text { fill: var(--text-secondary); font-size: 13px; font-weight: 500; }
      .axis-label { fill: var(--text-primary); font-size: 14px; font-weight: 600; text-anchor: middle; }
      .watermark { fill: var(--text-secondary); font-size: 11px; text-anchor: end; opacity: 0.8; }
    </style>
  </defs>

  <!-- Background rect with soft corner -->
  <rect width="850" height="460" rx="10" fill="var(--bg-color)" />

  <!-- Title & Icon -->
  <g id="title-group">
    <text x="425" y="38" class="title-text">✨ Storybook Component &amp; Story Growth</text>
  </g>

  <!-- Grid lines -->
  <g id="grid-group">
    <path d="M 75.00 309.67 Q 87.59 309.36 100.17 309.22 Q 112.76 309.46 125.34 309.43 Q 137.93 309.69 150.52 309.94 Q 163.10 309.73 175.69 309.65 Q 188.28 309.57 200.86 309.53 Q 213.45 309.38 226.03 309.45 Q 238.62 309.55 251.21 309.94 Q 263.79 309.62 276.38 309.49 Q 288.97 309.94 301.55 310.11 Q 314.14 310.07 326.72 310.02 Q 339.31 309.76 351.90 309.30 Q 364.48 309.81 377.07 310.25 Q 389.66 309.95 402.24 309.88 Q 414.83 310.02 427.41 309.88 Q 440.00 309.41 452.59 309.22 Q 465.17 309.47 477.76 309.72 Q 490.34 309.41 502.93 309.25 Q 515.52 309.36 528.10 309.33 Q 540.69 309.47 553.28 309.56 Q 565.86 309.72 578.45 309.61 Q 591.03 309.51 603.62 309.66 Q 616.21 309.84 628.79 309.97 Q 641.38 309.85 653.97 309.79 Q 666.55 309.56 679.14 309.33 Q 691.72 309.46 704.31 309.85 Q 716.90 309.73 729.48 309.82 Q 742.07 309.79 754.66 310.03 Q 767.24 309.96 779.83 309.62 Q 792.41 309.69 805.00 309.67" class="grid" />
    <path d="M 75.00 235.00 Q 87.59 235.33 100.17 235.41 Q 112.76 235.31 125.34 235.06 Q 137.93 234.75 150.52 234.71 Q 163.10 234.95 175.69 234.96 Q 188.28 235.02 200.86 234.80 Q 213.45 234.99 226.03 234.94 Q 238.62 234.68 251.21 234.43 Q 263.79 234.76 276.38 235.06 Q 288.97 235.16 301.55 235.20 Q 314.14 234.97 326.72 234.56 Q 339.31 234.94 351.90 235.57 Q 364.48 235.39 377.07 234.93 Q 389.66 235.06 402.24 234.89 Q 414.83 235.06 427.41 235.36 Q 440.00 234.96 452.59 234.49 Q 465.17 235.10 477.76 235.51 Q 490.34 234.91 502.93 234.58 Q 515.52 234.64 528.10 234.76 Q 540.69 234.94 553.28 235.28 Q 565.86 235.13 578.45 234.91 Q 591.03 235.05 603.62 234.99 Q 616.21 234.90 628.79 234.72 Q 641.38 234.62 653.97 234.68 Q 666.55 234.94 679.14 235.15 Q 691.72 235.01 704.31 234.84 Q 716.90 234.99 729.48 234.87 Q 742.07 234.58 754.66 234.43 Q 767.24 234.84 779.83 235.23 Q 792.41 235.08 805.00 235.00" class="grid" />
    <path d="M 75.00 149.67 Q 87.59 149.44 100.17 149.39 Q 112.76 149.34 125.34 149.13 Q 137.93 149.17 150.52 149.18 Q 163.10 149.57 175.69 149.67 Q 188.28 149.48 200.86 149.41 Q 213.45 149.47 226.03 149.70 Q 238.62 149.66 251.21 149.55 Q 263.79 149.43 276.38 149.39 Q 288.97 149.47 301.55 149.65 Q 314.14 149.90 326.72 149.93 Q 339.31 149.71 351.90 149.59 Q 364.48 149.49 377.07 149.24 Q 389.66 149.77 402.24 150.22 Q 414.83 150.08 427.41 149.69 Q 440.00 149.78 452.59 149.73 Q 465.17 149.51 477.76 149.50 Q 490.34 149.50 502.93 149.24 Q 515.52 149.67 528.10 149.97 Q 540.69 149.74 553.28 149.47 Q 565.86 149.73 578.45 149.84 Q 591.03 149.75 603.62 149.86 Q 616.21 150.06 628.79 150.05 Q 641.38 150.08 653.97 150.19 Q 666.55 149.85 679.14 149.46 Q 691.72 149.83 704.31 150.00 Q 716.90 149.66 729.48 149.51 Q 742.07 149.57 754.66 149.46 Q 767.24 149.57 779.83 149.82 Q 792.41 149.60 805.00 149.67" class="grid" />
    <path d="M 75.00 75.00 Q 87.59 75.00 100.17 74.72 Q 112.76 74.99 125.34 75.28 Q 137.93 74.82 150.52 74.55 Q 163.10 74.92 175.69 75.41 Q 188.28 74.82 200.86 74.41 Q 213.45 74.69 226.03 74.72 Q 238.62 74.89 251.21 74.90 Q 263.79 74.61 276.38 74.48 Q 288.97 74.87 301.55 75.43 Q 314.14 74.94 326.72 74.44 Q 339.31 74.83 351.90 74.99 Q 364.48 75.33 377.07 75.49 Q 389.66 75.17 402.24 75.02 Q 414.83 74.66 427.41 74.48 Q 440.00 75.01 452.59 75.50 Q 465.17 75.51 477.76 75.39 Q 490.34 74.96 502.93 74.73 Q 515.52 75.29 528.10 75.57 Q 540.69 75.61 553.28 75.48 Q 565.86 75.49 578.45 75.57 Q 591.03 75.08 603.62 74.61 Q 616.21 74.91 628.79 75.45 Q 641.38 74.96 653.97 74.63 Q 666.55 74.69 679.14 74.85 Q 691.72 74.64 704.31 74.68 Q 716.90 74.71 729.48 74.76 Q 742.07 74.80 754.66 74.66 Q 767.24 74.79 779.83 75.03 Q 792.41 75.14 805.00 75.00" class="grid" />
  </g>

  <!-- Axes -->
  <g id="axes-group">
    <path d="M 75.00 60.43 Q 75.33 73.63 75.30 86.84 Q 75.12 100.05 74.97 113.25 Q 75.27 126.46 75.94 139.66 Q 75.68 152.87 75.12 166.08 Q 75.54 179.28 75.75 192.49 Q 74.98 205.70 74.26 218.90 Q 74.60 232.11 74.43 245.31 Q 74.94 258.52 75.89 271.73 Q 75.51 284.93 75.07 298.14 Q 75.91 311.35 76.17 324.55 Q 74.92 337.76 74.00 350.96 Q 74.10 364.17 74.35 377.38 Q 74.82 390.58 75.00 403.79" class="axis" />
    <path d="M 65.08 395.00 Q 77.71 394.49 90.35 394.18 Q 102.98 394.51 115.62 394.26 Q 128.25 394.98 140.89 395.11 Q 153.52 394.79 166.15 394.84 Q 178.79 394.79 191.42 395.10 Q 204.06 395.24 216.69 395.44 Q 229.33 395.70 241.96 395.59 Q 254.60 395.38 267.23 395.73 Q 279.87 394.86 292.50 394.12 Q 305.14 394.27 317.77 394.40 Q 330.41 394.13 343.04 394.05 Q 355.67 394.95 368.31 395.64 Q 380.94 395.78 393.58 396.00 Q 406.21 396.29 418.85 396.01 Q 431.48 395.51 444.12 394.57 Q 456.75 395.27 469.39 395.58 Q 482.02 395.23 494.66 395.07 Q 507.29 394.85 519.93 394.55 Q 532.56 394.95 545.20 395.37 Q 557.83 395.25 570.46 394.89 Q 583.10 395.08 595.73 394.73 Q 608.37 394.29 621.00 394.10 Q 633.64 394.36 646.27 394.79 Q 658.91 394.86 671.54 395.50 Q 684.18 395.25 696.81 394.95 Q 709.45 394.30 722.08 394.10 Q 734.72 394.67 747.35 395.75 Q 759.98 395.34 772.62 395.23 Q 785.25 395.05 797.89 394.73 Q 810.52 395.16 823.16 395.00" class="axis" />
  </g>

  <!-- Y Tick Labels -->
  <g id="y-labels">
    <text x="63" y="399.0" class="label-text" text-anchor="end">0</text>
    <text x="63" y="313.7" class="label-text" text-anchor="end">8</text>
    <text x="63" y="239.0" class="label-text" text-anchor="end">15</text>
    <text x="63" y="153.7" class="label-text" text-anchor="end">23</text>
    <text x="63" y="79.0" class="label-text" text-anchor="end">30</text>
    <text x="27" y="235.0" class="axis-label" transform="rotate(-90 27 235.0)">Count</text>
  </g>

  <!-- X Tick Labels -->
  <g id="x-labels">
    
      <path d="M 75.00 394.28 Q 74.72 396.14 74.25 398.00 Q 74.50 399.85 75.00 401.71" class="axis" />
      <text x="75.0" y="419.0" class="label-text" text-anchor="middle">2026-09-13</text>
    
      <path d="M 231.43 394.33 Q 231.05 396.17 231.02 398.01 Q 231.32 399.85 231.43 401.69" class="axis" />
      <text x="231.4" y="419.0" class="label-text" text-anchor="middle">2026-09-13</text>
    
      <path d="M 387.86 394.29 Q 388.17 396.17 388.59 398.04 Q 388.34 399.92 387.86 401.80" class="axis" />
      <text x="387.9" y="419.0" class="label-text" text-anchor="middle">2026-09-14</text>
    
      <path d="M 544.29 394.18 Q 543.94 396.07 543.95 397.97 Q 544.03 399.87 544.29 401.76" class="axis" />
      <text x="544.3" y="419.0" class="label-text" text-anchor="middle">2026-09-15</text>
    
      <path d="M 700.71 394.33 Q 700.33 396.22 700.32 398.11 Q 700.38 400.01 700.71 401.90" class="axis" />
      <text x="700.7" y="419.0" class="label-text" text-anchor="middle">2026-09-22</text>
    
      <path d="M 805.00 394.33 Q 805.17 396.18 805.47 398.02 Q 805.39 399.87 805.00 401.72" class="axis" />
      <text x="805.0" y="419.0" class="label-text" text-anchor="middle">2026-09-22</text>
    
    <text x="440.0" y="446" class="axis-label">Date</text>
  </g>

  <!-- Series Curves -->
  <g id="series-curves">
    
    <!-- Total Components Curve -->
    <path d="M 75.00 352.33 C 83.61 352.16 109.98 354.01 126.97 352.50 C 144.18 350.14 161.96 345.57 179.05 341.60 C 196.21 337.74 213.63 332.52 231.18 331.19 C 248.53 328.78 265.98 330.73 283.66 330.77 C 301.15 330.97 317.93 330.72 335.47 330.86 C 353.25 330.55 370.21 331.33 387.88 331.12 C 405.71 330.98 422.50 331.06 439.81 330.98 C 457.35 331.11 474.47 330.87 492.26 331.02 C 509.70 330.60 526.51 331.00 544.43 331.21 C 561.91 330.76 578.86 331.11 596.19 330.87 C 614.07 331.00 631.14 332.65 648.65 330.77 C 665.57 329.41 682.86 320.26 700.61 320.33 C 717.99 320.78 734.98 329.14 752.94 330.87 C 770.53 332.98 795.99 331.14 805.00 331.00" class="total-line" />
    <path d="M 75.00 352.33 C 84.02 352.48 109.57 354.32 127.02 352.18 C 144.67 350.68 161.56 345.35 179.27 341.80 C 196.73 338.12 214.10 332.82 231.47 331.17 C 249.11 329.20 265.93 330.95 283.74 330.86 C 300.96 330.90 318.02 331.24 335.61 331.01 C 352.79 330.86 370.39 330.82 387.77 331.12 C 404.97 330.86 422.39 330.81 439.90 330.98 C 457.45 330.67 475.01 330.65 492.11 330.97 C 509.24 330.74 526.80 331.18 544.43 331.03 C 561.86 330.80 579.06 330.84 596.51 331.03 C 613.75 331.25 631.32 332.90 648.73 330.96 C 665.62 329.20 683.62 320.42 700.63 320.48 C 718.12 320.15 735.44 329.42 752.77 330.84 C 769.91 332.66 796.23 330.65 805.00 331.00" class="total-line" opacity="0.6" />
    

    <!-- Covered Components Curve -->
    <path d="M 75.00 352.33 C 83.46 351.95 109.71 351.98 127.31 352.30 C 144.64 352.27 162.17 352.37 179.18 352.29 C 197.05 352.20 213.64 352.72 231.50 352.39 C 248.80 351.98 266.36 351.87 283.71 352.36 C 300.82 352.04 318.14 352.40 335.50 352.44 C 352.60 352.12 370.14 352.33 387.86 352.25 C 405.26 352.01 422.31 352.37 439.99 352.32 C 457.70 352.05 475.15 352.17 491.93 352.27 C 509.53 352.64 527.33 352.15 544.36 352.30 C 561.97 352.65 579.25 352.26 596.31 352.41 C 614.30 351.95 631.50 355.70 648.50 352.56 C 665.98 348.48 683.53 331.12 700.89 330.92 C 717.77 330.54 735.30 349.02 753.07 352.18 C 770.38 355.91 796.46 352.18 805.00 352.33" class="components-line" />
    <path d="M 75.00 352.33 C 83.41 352.04 109.74 352.43 127.09 352.32 C 144.87 352.12 162.23 352.13 179.18 352.48 C 196.36 352.56 214.34 352.05 231.52 352.43 C 248.81 352.02 266.08 352.42 283.45 352.47 C 300.82 352.46 318.44 352.61 335.69 352.42 C 353.34 352.03 370.74 352.06 387.76 352.16 C 404.93 352.52 422.97 352.28 440.17 352.30 C 457.46 352.10 474.57 352.04 492.09 352.16 C 509.24 352.64 526.78 352.63 544.46 352.20 C 561.44 352.41 578.80 352.42 596.38 352.45 C 613.56 351.99 631.16 355.54 648.51 352.31 C 665.77 348.60 683.11 330.99 700.75 330.89 C 718.07 330.69 735.27 348.45 752.77 352.21 C 770.45 355.76 796.60 352.45 805.00 352.33" class="components-line" opacity="0.6" />

    <!-- Stories Curve -->
    <path d="M 75.00 224.33 C 83.90 224.67 109.43 224.24 126.94 224.43 C 144.18 223.92 161.68 224.07 179.48 224.12 C 196.25 224.24 213.86 224.61 231.38 224.40 C 248.45 224.01 266.61 224.69 283.74 224.32 C 301.08 224.26 318.57 224.02 335.69 224.42 C 353.19 224.12 370.38 224.52 387.63 224.34 C 405.57 224.52 422.65 224.74 440.12 224.30 C 457.10 224.43 475.07 223.86 492.02 224.38 C 509.76 224.22 527.08 224.61 544.53 224.53 C 562.06 224.26 579.32 224.15 596.54 224.17 C 613.35 224.50 631.13 242.61 648.49 224.40 C 666.30 206.62 683.68 117.91 700.73 117.46 C 718.55 117.63 735.59 206.78 752.82 224.13 C 769.97 242.51 796.67 224.49 805.00 224.33" class="stories-line" />
    <path d="M 75.00 224.33 C 83.44 223.99 109.58 224.50 126.99 224.40 C 144.66 224.33 161.92 224.49 179.26 224.38 C 196.35 224.54 214.36 224.39 231.60 224.41 C 248.69 224.66 266.08 224.65 283.42 224.22 C 300.97 224.53 318.62 224.46 335.65 224.50 C 353.17 224.00 370.20 224.00 387.69 224.50 C 405.06 224.52 422.88 224.02 439.85 224.25 C 457.67 224.41 474.60 224.26 492.25 224.37 C 509.72 224.68 526.64 224.32 544.22 224.28 C 561.33 224.05 578.73 224.44 596.27 224.44 C 613.46 224.50 631.22 242.01 648.43 224.41 C 665.83 206.32 683.63 117.64 700.70 117.60 C 718.10 117.38 735.25 206.26 752.92 224.26 C 770.19 242.15 796.27 224.20 805.00 224.33" class="stories-line" opacity="0.6" />
  </g>

  <!-- Data Point Markers -->
  <g id="data-points">
    
      <circle cx="75.0" cy="352.3" r="4" fill="var(--total-color)" stroke="var(--bg-color)" stroke-width="1.5" />
    
      <circle cx="127.1" cy="352.3" r="4" fill="var(--total-color)" stroke="var(--bg-color)" stroke-width="1.5" />
    
      <circle cx="179.3" cy="341.7" r="4" fill="var(--total-color)" stroke="var(--bg-color)" stroke-width="1.5" />
    
      <circle cx="231.4" cy="331.0" r="4" fill="var(--total-color)" stroke="var(--bg-color)" stroke-width="1.5" />
    
      <circle cx="283.6" cy="331.0" r="4" fill="var(--total-color)" stroke="var(--bg-color)" stroke-width="1.5" />
    
      <circle cx="335.7" cy="331.0" r="4" fill="var(--total-color)" stroke="var(--bg-color)" stroke-width="1.5" />
    
      <circle cx="387.9" cy="331.0" r="4" fill="var(--total-color)" stroke="var(--bg-color)" stroke-width="1.5" />
    
      <circle cx="440.0" cy="331.0" r="4" fill="var(--total-color)" stroke="var(--bg-color)" stroke-width="1.5" />
    
      <circle cx="492.1" cy="331.0" r="4" fill="var(--total-color)" stroke="var(--bg-color)" stroke-width="1.5" />
    
      <circle cx="544.3" cy="331.0" r="4" fill="var(--total-color)" stroke="var(--bg-color)" stroke-width="1.5" />
    
      <circle cx="596.4" cy="331.0" r="4" fill="var(--total-color)" stroke="var(--bg-color)" stroke-width="1.5" />
    
      <circle cx="648.6" cy="331.0" r="4" fill="var(--total-color)" stroke="var(--bg-color)" stroke-width="1.5" />
    
      <circle cx="700.7" cy="320.3" r="4" fill="var(--total-color)" stroke="var(--bg-color)" stroke-width="1.5" />
    
      <circle cx="752.9" cy="331.0" r="4" fill="var(--total-color)" stroke="var(--bg-color)" stroke-width="1.5" />
    
      <circle cx="805.0" cy="331.0" r="4" fill="var(--total-color)" stroke="var(--bg-color)" stroke-width="1.5" />
    
    
      <circle cx="75.0" cy="352.3" r="4.5" fill="var(--components-color)" stroke="var(--bg-color)" stroke-width="1.5" />
    
      <circle cx="127.1" cy="352.3" r="4.5" fill="var(--components-color)" stroke="var(--bg-color)" stroke-width="1.5" />
    
      <circle cx="179.3" cy="352.3" r="4.5" fill="var(--components-color)" stroke="var(--bg-color)" stroke-width="1.5" />
    
      <circle cx="231.4" cy="352.3" r="4.5" fill="var(--components-color)" stroke="var(--bg-color)" stroke-width="1.5" />
    
      <circle cx="283.6" cy="352.3" r="4.5" fill="var(--components-color)" stroke="var(--bg-color)" stroke-width="1.5" />
    
      <circle cx="335.7" cy="352.3" r="4.5" fill="var(--components-color)" stroke="var(--bg-color)" stroke-width="1.5" />
    
      <circle cx="387.9" cy="352.3" r="4.5" fill="var(--components-color)" stroke="var(--bg-color)" stroke-width="1.5" />
    
      <circle cx="440.0" cy="352.3" r="4.5" fill="var(--components-color)" stroke="var(--bg-color)" stroke-width="1.5" />
    
      <circle cx="492.1" cy="352.3" r="4.5" fill="var(--components-color)" stroke="var(--bg-color)" stroke-width="1.5" />
    
      <circle cx="544.3" cy="352.3" r="4.5" fill="var(--components-color)" stroke="var(--bg-color)" stroke-width="1.5" />
    
      <circle cx="596.4" cy="352.3" r="4.5" fill="var(--components-color)" stroke="var(--bg-color)" stroke-width="1.5" />
    
      <circle cx="648.6" cy="352.3" r="4.5" fill="var(--components-color)" stroke="var(--bg-color)" stroke-width="1.5" />
    
      <circle cx="700.7" cy="331.0" r="4.5" fill="var(--components-color)" stroke="var(--bg-color)" stroke-width="1.5" />
    
      <circle cx="752.9" cy="352.3" r="4.5" fill="var(--components-color)" stroke="var(--bg-color)" stroke-width="1.5" />
    
      <circle cx="805.0" cy="352.3" r="4.5" fill="var(--components-color)" stroke="var(--bg-color)" stroke-width="1.5" />
    
    
      <circle cx="75.0" cy="224.3" r="4.5" fill="var(--stories-color)" stroke="var(--bg-color)" stroke-width="1.5" />
    
      <circle cx="127.1" cy="224.3" r="4.5" fill="var(--stories-color)" stroke="var(--bg-color)" stroke-width="1.5" />
    
      <circle cx="179.3" cy="224.3" r="4.5" fill="var(--stories-color)" stroke="var(--bg-color)" stroke-width="1.5" />
    
      <circle cx="231.4" cy="224.3" r="4.5" fill="var(--stories-color)" stroke="var(--bg-color)" stroke-width="1.5" />
    
      <circle cx="283.6" cy="224.3" r="4.5" fill="var(--stories-color)" stroke="var(--bg-color)" stroke-width="1.5" />
    
      <circle cx="335.7" cy="224.3" r="4.5" fill="var(--stories-color)" stroke="var(--bg-color)" stroke-width="1.5" />
    
      <circle cx="387.9" cy="224.3" r="4.5" fill="var(--stories-color)" stroke="var(--bg-color)" stroke-width="1.5" />
    
      <circle cx="440.0" cy="224.3" r="4.5" fill="var(--stories-color)" stroke="var(--bg-color)" stroke-width="1.5" />
    
      <circle cx="492.1" cy="224.3" r="4.5" fill="var(--stories-color)" stroke="var(--bg-color)" stroke-width="1.5" />
    
      <circle cx="544.3" cy="224.3" r="4.5" fill="var(--stories-color)" stroke="var(--bg-color)" stroke-width="1.5" />
    
      <circle cx="596.4" cy="224.3" r="4.5" fill="var(--stories-color)" stroke="var(--bg-color)" stroke-width="1.5" />
    
      <circle cx="648.6" cy="224.3" r="4.5" fill="var(--stories-color)" stroke="var(--bg-color)" stroke-width="1.5" />
    
      <circle cx="700.7" cy="117.7" r="4.5" fill="var(--stories-color)" stroke="var(--bg-color)" stroke-width="1.5" />
    
      <circle cx="752.9" cy="224.3" r="4.5" fill="var(--stories-color)" stroke="var(--bg-color)" stroke-width="1.5" />
    
      <circle cx="805.0" cy="224.3" r="4.5" fill="var(--stories-color)" stroke="var(--bg-color)" stroke-width="1.5" />
    
  </g>

  <!-- Legend Box -->
  <g id="legend" transform="translate(0, 0)">
    <rect x="90" y="87" width="260" height="80" rx="4" fill="var(--legend-bg)" />
    <path d="M 88.87 87.00 Q 102.02 86.65 115.17 86.68 Q 128.32 87.13 141.47 87.46 Q 154.62 86.72 167.77 86.24 Q 180.92 86.46 194.07 86.30 Q 207.22 86.17 220.37 86.27 Q 233.52 86.45 246.67 86.90 Q 259.82 86.54 272.97 86.43 Q 286.12 86.87 299.26 86.91 Q 312.41 86.74 325.56 86.88 Q 338.71 87.16 351.86 87.00 M 350.00 85.25 Q 350.40 99.09 350.72 112.92 Q 350.93 126.76 350.90 140.60 Q 350.51 154.43 350.00 168.27 M 351.04 167.00 Q 337.90 167.39 324.77 167.69 Q 311.63 167.73 298.50 167.77 Q 285.36 167.55 272.23 167.66 Q 259.09 167.48 245.96 167.05 Q 232.82 167.14 219.69 167.20 Q 206.55 167.48 193.42 167.57 Q 180.28 166.84 167.15 166.43 Q 154.01 166.05 140.88 166.12 Q 127.74 167.07 114.61 167.74 Q 101.47 167.45 88.34 167.00 M 90.00 168.23 Q 90.06 154.40 89.85 140.56 Q 89.93 126.73 89.99 112.90 Q 90.18 99.07 90.00 85.23" class="legend-box" fill="none" />

    <!-- Stories Legend Item -->
    <rect x="104" y="99" width="14" height="10" rx="2" fill="var(--stories-color)" />
    <text x="126" y="108" class="label-text" font-weight="bold">Stories (16)</text>

    <!-- Covered Components Legend Item -->
    <rect x="104" y="119" width="14" height="10" rx="2" fill="var(--components-color)" />
    <text x="126" y="128" class="label-text" font-weight="bold">Covered Components (4 • 67%)</text>

    
    <!-- Total Components Legend Item -->
    <rect x="104" y="139" width="14" height="10" rx="2" fill="var(--total-color)" />
    <text x="126" y="148" class="label-text" font-weight="bold">Total Components (6)</text>
    
  </g>

  <!-- Footer / Watermark -->
  <g id="watermark">
    <text x="830" y="446" class="watermark">storybook-github-pages</text>
  </g>
</svg>