<?xml version="1.0" encoding="UTF-8"?>
<svg xmlns="http://www.w3.org/2000/svg" viewBox="0 0 850 460" width="100%" height="100%" style="background-color: var(--bg-color, #ffffff); font-family: 'Comic Sans MS', 'Chalkboard SE', 'Virgil', 'Segoe Print', ui-sans-serif, system-ui, sans-serif;">
  <defs>
    <style>
      :root {
        --bg-color: #ffffff;
        --border-color: #1e293b;
        --text-primary: #0f172a;
        --text-secondary: #475569;
        --grid-color: #e2e8f0;
        --components-color: #16a34a;
        --total-color: #dc2626;
        --legend-bg: #ffffff;
      }
      @media (prefers-color-scheme: dark) {
        :root {
          --bg-color: #0d1117;
          --border-color: #e6edf3;
          --text-primary: #f0f6fc;
          --text-secondary: #8b949e;
          --grid-color: #21262d;
          --components-color: #22c55e;
          --total-color: #f87171;
          --legend-bg: #161b22;
        }
      }
      
      .axis { stroke: var(--border-color); stroke-width: 2.2; fill: none; stroke-linecap: round; stroke-linejoin: round; }
      .grid { stroke: var(--grid-color); stroke-width: 1.2; stroke-dasharray: 4,4; fill: none; }
      .components-line { stroke: var(--components-color); stroke-width: 2.8; fill: none; stroke-linecap: round; stroke-linejoin: round; }
      .total-line { stroke: var(--total-color); stroke-width: 2.8; fill: none; stroke-linecap: round; stroke-linejoin: round; }
      .legend-box { stroke: var(--border-color); stroke-width: 1.6; fill: var(--legend-bg); }
      .title-text { fill: var(--text-primary); font-size: 20px; font-weight: bold; text-anchor: middle; }
      .label-text { fill: var(--text-secondary); font-size: 13px; font-weight: 500; }
      .axis-label { fill: var(--text-primary); font-size: 14px; font-weight: 600; text-anchor: middle; }
      .watermark { fill: var(--text-secondary); font-size: 11px; text-anchor: end; opacity: 0.8; }
    </style>
  </defs>

  <!-- Background rect with soft corner -->
  <rect width="850" height="460" rx="10" fill="var(--bg-color)" />

  <!-- Title & Icon -->
  <g id="title-group">
    <text x="425" y="38" class="title-text">✨ Storybook Component &amp; Story Growth</text>
  </g>

  <!-- Grid lines -->
  <g id="grid-group">
    <path d="M 75.00 303.57 Q 87.59 303.26 100.17 303.12 Q 112.76 303.36 125.34 303.33 Q 137.93 303.59 150.52 303.84 Q 163.10 303.64 175.69 303.56 Q 188.28 303.48 200.86 303.44 Q 213.45 303.28 226.03 303.36 Q 238.62 303.46 251.21 303.85 Q 263.79 303.53 276.38 303.39 Q 288.97 303.84 301.55 304.02 Q 314.14 303.97 326.72 303.92 Q 339.31 303.66 351.90 303.21 Q 364.48 303.72 377.07 304.15 Q 389.66 303.85 402.24 303.78 Q 414.83 303.93 427.41 303.79 Q 440.00 303.32 452.59 303.13 Q 465.17 303.38 477.76 303.62 Q 490.34 303.32 502.93 303.16 Q 515.52 303.27 528.10 303.23 Q 540.69 303.37 553.28 303.47 Q 565.86 303.62 578.45 303.51 Q 591.03 303.41 603.62 303.56 Q 616.21 303.74 628.79 303.88 Q 641.38 303.75 653.97 303.70 Q 666.55 303.46 679.14 303.24 Q 691.72 303.36 704.31 303.75 Q 716.90 303.63 729.48 303.73 Q 742.07 303.70 754.66 303.93 Q 767.24 303.87 779.83 303.52 Q 792.41 303.59 805.00 303.57" class="grid" />
    <path d="M 75.00 212.14 Q 87.59 212.47 100.17 212.56 Q 112.76 212.45 125.34 212.21 Q 137.93 211.89 150.52 211.86 Q 163.10 212.09 175.69 212.11 Q 188.28 212.16 200.86 211.95 Q 213.45 212.13 226.03 212.08 Q 238.62 211.82 251.21 211.57 Q 263.79 211.90 276.38 212.20 Q 288.97 212.31 301.55 212.34 Q 314.14 212.11 326.72 211.70 Q 339.31 212.08 351.90 212.71 Q 364.48 212.53 377.07 212.07 Q 389.66 212.20 402.24 212.03 Q 414.83 212.21 427.41 212.50 Q 440.00 212.10 452.59 211.63 Q 465.17 212.24 477.76 212.65 Q 490.34 212.05 502.93 211.72 Q 515.52 211.79 528.10 211.90 Q 540.69 212.08 553.28 212.42 Q 565.86 212.28 578.45 212.06 Q 591.03 212.19 603.62 212.13 Q 616.21 212.05 628.79 211.87 Q 641.38 211.77 653.97 211.82 Q 666.55 212.09 679.14 212.29 Q 691.72 212.15 704.31 211.99 Q 716.90 212.13 729.48 212.01 Q 742.07 211.72 754.66 211.58 Q 767.24 211.98 779.83 212.38 Q 792.41 212.23 805.00 212.14" class="grid" />
    <path d="M 75.00 166.43 Q 87.59 166.20 100.17 166.16 Q 112.76 166.10 125.34 165.89 Q 137.93 165.93 150.52 165.94 Q 163.10 166.34 175.69 166.44 Q 188.28 166.24 200.86 166.18 Q 213.45 166.23 226.03 166.46 Q 238.62 166.42 251.21 166.31 Q 263.79 166.19 276.38 166.16 Q 288.97 166.24 301.55 166.41 Q 314.14 166.67 326.72 166.69 Q 339.31 166.47 351.90 166.35 Q 364.48 166.25 377.07 166.00 Q 389.66 166.53 402.24 166.98 Q 414.83 166.84 427.41 166.45 Q 440.00 166.54 452.59 166.49 Q 465.17 166.27 477.76 166.26 Q 490.34 166.26 502.93 166.00 Q 515.52 166.43 528.10 166.73 Q 540.69 166.50 553.28 166.24 Q 565.86 166.49 578.45 166.60 Q 591.03 166.52 603.62 166.62 Q 616.21 166.82 628.79 166.81 Q 641.38 166.84 653.97 166.95 Q 666.55 166.61 679.14 166.22 Q 691.72 166.60 704.31 166.76 Q 716.90 166.43 729.48 166.27 Q 742.07 166.33 754.66 166.22 Q 767.24 166.33 779.83 166.58 Q 792.41 166.36 805.00 166.43" class="grid" />
    <path d="M 75.00 75.00 Q 87.59 75.00 100.17 74.72 Q 112.76 74.99 125.34 75.28 Q 137.93 74.82 150.52 74.55 Q 163.10 74.92 175.69 75.41 Q 188.28 74.82 200.86 74.41 Q 213.45 74.69 226.03 74.72 Q 238.62 74.89 251.21 74.90 Q 263.79 74.61 276.38 74.48 Q 288.97 74.87 301.55 75.43 Q 314.14 74.94 326.72 74.44 Q 339.31 74.83 351.90 74.99 Q 364.48 75.33 377.07 75.49 Q 389.66 75.17 402.24 75.02 Q 414.83 74.66 427.41 74.48 Q 440.00 75.01 452.59 75.50 Q 465.17 75.51 477.76 75.39 Q 490.34 74.96 502.93 74.73 Q 515.52 75.29 528.10 75.57 Q 540.69 75.61 553.28 75.48 Q 565.86 75.49 578.45 75.57 Q 591.03 75.08 603.62 74.61 Q 616.21 74.91 628.79 75.45 Q 641.38 74.96 653.97 74.63 Q 666.55 74.69 679.14 74.85 Q 691.72 74.64 704.31 74.68 Q 716.90 74.71 729.48 74.76 Q 742.07 74.80 754.66 74.66 Q 767.24 74.79 779.83 75.03 Q 792.41 75.14 805.00 75.00" class="grid" />
  </g>

  <!-- Axes -->
  <g id="axes-group">
    <path d="M 75.00 60.43 Q 75.33 73.63 75.30 86.84 Q 75.12 100.05 74.97 113.25 Q 75.27 126.46 75.94 139.66 Q 75.68 152.87 75.12 166.08 Q 75.54 179.28 75.75 192.49 Q 74.98 205.70 74.26 218.90 Q 74.60 232.11 74.43 245.31 Q 74.94 258.52 75.89 271.73 Q 75.51 284.93 75.07 298.14 Q 75.91 311.35 76.17 324.55 Q 74.92 337.76 74.00 350.96 Q 74.10 364.17 74.35 377.38 Q 74.82 390.58 75.00 403.79" class="axis" />
    <path d="M 65.08 395.00 Q 77.71 394.49 90.35 394.18 Q 102.98 394.51 115.62 394.26 Q 128.25 394.98 140.89 395.11 Q 153.52 394.79 166.15 394.84 Q 178.79 394.79 191.42 395.10 Q 204.06 395.24 216.69 395.44 Q 229.33 395.70 241.96 395.59 Q 254.60 395.38 267.23 395.73 Q 279.87 394.86 292.50 394.12 Q 305.14 394.27 317.77 394.40 Q 330.41 394.13 343.04 394.05 Q 355.67 394.95 368.31 395.64 Q 380.94 395.78 393.58 396.00 Q 406.21 396.29 418.85 396.01 Q 431.48 395.51 444.12 394.57 Q 456.75 395.27 469.39 395.58 Q 482.02 395.23 494.66 395.07 Q 507.29 394.85 519.93 394.55 Q 532.56 394.95 545.20 395.37 Q 557.83 395.25 570.46 394.89 Q 583.10 395.08 595.73 394.73 Q 608.37 394.29 621.00 394.10 Q 633.64 394.36 646.27 394.79 Q 658.91 394.86 671.54 395.50 Q 684.18 395.25 696.81 394.95 Q 709.45 394.30 722.08 394.10 Q 734.72 394.67 747.35 395.75 Q 759.98 395.34 772.62 395.23 Q 785.25 395.05 797.89 394.73 Q 810.52 395.16 823.16 395.00" class="axis" />
  </g>

  <!-- Y Tick Labels -->
  <g id="y-labels">
    <text x="63" y="399.0" class="label-text" text-anchor="end">0</text>
    <text x="63" y="307.6" class="label-text" text-anchor="end">2</text>
    <text x="63" y="216.1" class="label-text" text-anchor="end">4</text>
    <text x="63" y="170.4" class="label-text" text-anchor="end">5</text>
    <text x="63" y="79.0" class="label-text" text-anchor="end">7</text>
    <text x="27" y="235.0" class="axis-label" transform="rotate(-90 27 235.0)">Count</text>
  </g>

  <!-- X Tick Labels -->
  <g id="x-labels">
    
      <path d="M 75.00 394.28 Q 74.72 396.14 74.25 398.00 Q 74.50 399.85 75.00 401.71" class="axis" />
      <text x="75.0" y="419.0" class="label-text" text-anchor="middle">2026-09-13</text>
    
      <path d="M 318.33 394.33 Q 317.96 396.17 317.93 398.01 Q 318.23 399.85 318.33 401.69" class="axis" />
      <text x="318.3" y="419.0" class="label-text" text-anchor="middle">2026-09-13</text>
    
      <path d="M 561.67 394.29 Q 561.98 396.17 562.40 398.04 Q 562.15 399.92 561.67 401.80" class="axis" />
      <text x="561.7" y="419.0" class="label-text" text-anchor="middle">2026-09-13</text>
    
      <path d="M 805.00 394.18 Q 804.65 396.07 804.67 397.97 Q 804.74 399.87 805.00 401.76" class="axis" />
      <text x="805.0" y="419.0" class="label-text" text-anchor="middle">2026-09-24</text>
    
    <text x="440.0" y="446" class="axis-label">Date</text>
  </g>

  <!-- Series Curves -->
  <g id="series-curves">
    
    <!-- Total Components Curve -->
    <path d="M 75.00 212.14 C 115.13 204.43 237.03 181.95 318.29 166.50 C 399.08 150.87 480.97 128.69 561.84 120.70 C 642.91 113.02 764.68 120.40 805.00 120.71" class="total-line" />
    <path d="M 75.00 212.14 C 115.52 204.65 237.29 181.52 318.30 166.49 C 399.12 151.20 480.79 128.46 561.68 120.86 C 642.95 113.05 764.25 120.78 805.00 120.71" class="total-line" opacity="0.6" />
    

    <!-- Covered Components Curve -->
    <path d="M 75.00 212.14 C 115.47 211.99 237.20 212.45 318.46 212.38 C 399.17 212.26 480.90 211.78 561.61 212.06 C 642.56 212.08 764.15 212.30 805.00 212.14" class="components-line" />
    <path d="M 75.00 212.14 C 115.28 212.40 236.94 212.14 318.41 212.26 C 399.21 212.08 480.27 212.27 561.55 212.00 C 642.62 211.96 764.71 211.84 805.00 212.14" class="components-line" opacity="0.6" />

  </g>

  <!-- Data Point Markers -->
  <g id="data-points">
    
      <circle cx="75.0" cy="212.1" r="4" fill="var(--total-color)" stroke="var(--bg-color)" stroke-width="1.5" />
    
      <circle cx="318.3" cy="166.4" r="4" fill="var(--total-color)" stroke="var(--bg-color)" stroke-width="1.5" />
    
      <circle cx="561.7" cy="120.7" r="4" fill="var(--total-color)" stroke="var(--bg-color)" stroke-width="1.5" />
    
      <circle cx="805.0" cy="120.7" r="4" fill="var(--total-color)" stroke="var(--bg-color)" stroke-width="1.5" />
    
    
      <circle cx="75.0" cy="212.1" r="4.5" fill="var(--components-color)" stroke="var(--bg-color)" stroke-width="1.5" />
    
      <circle cx="318.3" cy="212.1" r="4.5" fill="var(--components-color)" stroke="var(--bg-color)" stroke-width="1.5" />
    
      <circle cx="561.7" cy="212.1" r="4.5" fill="var(--components-color)" stroke="var(--bg-color)" stroke-width="1.5" />
    
      <circle cx="805.0" cy="212.1" r="4.5" fill="var(--components-color)" stroke="var(--bg-color)" stroke-width="1.5" />
    
  </g>

  <!-- Legend Box -->
  <g id="legend" transform="translate(0, 0)">
    <rect x="90" y="87" width="300" height="58" rx="4" fill="var(--legend-bg)" />
    <path d="M 88.19 87.00 Q 100.82 87.29 113.45 87.43 Q 126.07 87.63 138.70 87.49 Q 151.33 87.72 163.96 87.70 Q 176.59 87.04 189.21 86.67 Q 201.84 86.40 214.47 86.18 Q 227.10 87.10 239.73 87.90 Q 252.35 87.91 264.98 87.62 Q 277.61 87.35 290.24 87.45 Q 302.87 87.68 315.49 87.81 Q 328.12 87.42 340.75 87.40 Q 353.38 87.12 366.01 86.52 Q 378.63 86.54 391.26 87.00 M 390.00 85.26 Q 389.82 100.61 389.64 115.97 Q 389.85 131.33 390.00 146.69 M 391.05 145.00 Q 378.43 144.64 365.80 144.12 Q 353.18 143.94 340.56 144.17 Q 327.93 144.97 315.31 145.79 Q 302.68 145.05 290.06 144.49 Q 277.43 144.86 264.81 145.34 Q 252.18 145.81 239.56 145.85 Q 226.93 145.97 214.31 145.87 Q 201.68 145.39 189.06 144.51 Q 176.43 144.95 163.81 145.76 Q 151.18 145.33 138.56 144.81 Q 125.93 144.50 113.31 144.44 Q 100.68 144.73 88.06 145.00 M 90.00 146.34 Q 89.66 131.23 89.18 116.12 Q 89.37 101.02 90.00 85.91" class="legend-box" fill="none" />

    <!-- Covered Components Legend Item -->
    <rect x="104" y="99" width="14" height="10" rx="2" fill="var(--components-color)" />
    <text x="126" y="108" class="label-text" font-weight="bold">Covered Components (4 • 67%)</text>

    
    <!-- Total Components Legend Item -->
    <rect x="104" y="119" width="14" height="10" rx="2" fill="var(--total-color)" />
    <text x="126" y="128" class="label-text" font-weight="bold">Total Components (6)</text>
    
  </g>

  <!-- Footer / Watermark -->
  <g id="watermark">
    <text x="830" y="446" class="watermark">storybook-github-pages</text>
  </g>
</svg>